<svg xmlns="http://www.w3.org/2000/svg" viewBox="0 0 440 120" role="img" aria-label="inkan">
  <defs>
    <filter id="ink" x="-10%" y="-10%" width="120%" height="120%">
      <feTurbulence type="fractalNoise" baseFrequency="0.9" numOctaves="2" seed="7" result="noise"/>
      <feDisplacementMap in="SourceGraphic" in2="noise" scale="2.2"/>
    </filter>
  </defs>
  <g transform="rotate(-4 60 60)" filter="url(#ink)">
    <rect x="10" y="10" width="100" height="100" rx="22" fill="#c4381f"/>
    <rect x="20" y="20" width="80" height="80" rx="13" fill="none" stroke="#fbf7ef" stroke-width="3.5"/>
    <g fill="none" stroke="#fbf7ef" stroke-width="6" stroke-linecap="round" stroke-linejoin="round">
      <path d="M44 34 C37 34 36 39 36 46 L36 53 C36 57.5 33.5 60 30 60 C33.5 60 36 62.5 36 67 L36 74 C36 81 37 86 44 86"/>
      <path d="M76 34 C83 34 84 39 84 46 L84 53 C84 57.5 86.5 60 90 60 C86.5 60 84 62.5 84 67 L84 74 C84 81 83 86 76 86"/>
      <path d="M48.5 61 L56.5 69 L72 51"/>
    </g>
  </g>
  <text x="136" y="78" font-family="ui-monospace, 'Cascadia Code', 'JetBrains Mono', Menlo, Consolas, monospace" font-size="64" font-weight="700" letter-spacing="-1" fill="#2b2420">inkan</text>
  <text x="139" y="104" font-family="ui-monospace, 'Cascadia Code', Menlo, Consolas, monospace" font-size="15" fill="#74675b">印鑑 · the docs can't lie</text>
</svg>
